<svg xmlns="http://www.w3.org/2000/svg" viewBox="0 0 586.08 50.86"><defs><style>.cls-1{fill:#c6c6c6;}</style></defs><title>Asset 3</title><g id="Layer_2" data-name="Layer 2"><g id="Laag_1" data-name="Laag 1"><path class="cls-1" d="M9.68,0l21,50.86H21L0,0ZM51.22,0,33.76,42.12,29,30.41,41.54,0Z"/><path class="cls-1" d="M100.62,50.86H91.16L86.58,39.43H61.77L57.18,50.86H47.65L68,0h12.3ZM83.16,30.92l-9-22.48L65.19,30.92Z"/><path class="cls-1" d="M151.1,50.86h-6.83L114.22,15.93V50.86h-9.39V0h6.84l30.05,34.85V0h9.38Z"/><path class="cls-1" d="M208.8,25.46a25.51,25.51,0,0,1-25.61,25.4H160.85V0h22.63c9.53,0,17.17,6.55,17.17,15.42a22.24,22.24,0,0,1-3.28,11.21c0-.37.08-.8.08-1.17,0-8.87-6.77-16.44-15.14-16.44H170.24V41.76h12c15.13-.36,23.5-10.55,25.17-24.52A25.5,25.5,0,0,1,208.8,25.46Z"/><path class="cls-1" d="M225.23,8.73V21h26.12v8.8H225.23V42.05h31.58v8.81h-41V0h41V8.73Z"/><path class="cls-1" d="M312.9,50.86H301.84L290.13,35.14H274.78V50.86h-9.39V0h26.7a17.77,17.77,0,0,1,17.83,17.61A17.48,17.48,0,0,1,299.8,33.39ZM300.53,17.61A8.68,8.68,0,0,0,291.8,9h-17v17.1h17A8.62,8.62,0,0,0,300.53,17.61Z"/><path class="cls-1" d="M317.77,0h9.39V50.86h-9.39Zm15.86,50.86V42.05h19.86v8.81Z"/><path class="cls-1" d="M359.6,50.86V0H369V50.86Z"/><path class="cls-1" d="M425.74,50.86H418.9l-30-34.93V50.86h-9.39V0h6.84l30.05,34.85V0h9.39Z"/><path class="cls-1" d="M483.43,25.46a25.51,25.51,0,0,1-25.61,25.4H435.48V0h22.63c9.53,0,17.17,6.55,17.17,15.42A22.24,22.24,0,0,1,472,26.63c0-.37.08-.8.08-1.17,0-8.87-6.77-16.44-15.14-16.44H444.87V41.76h12C472,41.4,480.37,31.21,482,17.24A25.5,25.5,0,0,1,483.43,25.46Z"/><path class="cls-1" d="M499.87,8.73V21H526v8.8H499.87V42.05h31.57v8.81h-41V0h41V8.73Z"/><path class="cls-1" d="M586.08,50.86h-6.84l-30-34.93V50.86H539.8V0h6.84l30.05,34.85V0h9.39Z"/></g></g></svg>