<svg xmlns="http://www.w3.org/2000/svg" viewBox="0 0 586.08 369.47"><defs><style>.cls-1{opacity:0.82;}.cls-2{fill:#8a5d4c;}.cls-3{fill:#c6c6c6;}</style></defs><title>Asset 2</title><g id="Layer_2" data-name="Layer 2"><g id="Laag_1" data-name="Laag 1"><g class="cls-1"><path class="cls-2" d="M121.28,369.47c-3.13,0-4.83-.15-4.88-.16l-1.9-.18L158.63,317l174.59-175.3,57.54,58.51-.7.7c-.44.44-44.58,44.39-126,109.08-42.65,33.89-80.49,48.21-104.73,54.25C141.41,368.75,128,369.47,121.28,369.47Zm-2.72-2c5.06.17,19.62.08,40.45-5.12,24-6,61.53-20.21,103.84-53.85C338.56,248.28,382,206.1,387.94,200.23l-54.73-55.65L160.11,318.39Z"/><path class="cls-2" d="M390,201l-1.32-1.51,9.36-8.21c-2.76-2.67-12.38-11.94-21.38-20.36-4.05-3.79-6-7.5-5.7-11a9,9,0,0,1,3.61-6.37C433.19,110.42,476.28,57.33,478,47.39c1.81-10.47,10.15-9.38,20.7-8,1.1.15,2.22.3,3.38.44,4.27-8.28,6.18-24.66-12.54-36.52-10.26-6.5-28.48,12.94-28.66,13.14L333.92,143.87l-1.41-1.42L459.42,15.08c.77-.83,19.52-20.83,31.18-13.45,12.89,8.16,21.87,23.62,12.9,39.77l-.32.58-.67-.08c-1.4-.16-2.76-.34-4.08-.51C487,39.88,481.38,39.52,480,47.73c-2,11.75-48.51,66.45-104.23,107.43a7.1,7.1,0,0,0-2.77,4.92c-.21,2.88,1.5,6,5.08,9.38,10.6,9.93,22.07,21,22.18,21.13l.78.76Z"/><rect class="cls-2" x="362.43" y="120.74" width="2" height="37.96" transform="translate(9.74 302.53) rotate(-45.75)"/><path class="cls-2" d="M167.5,352.88l-.75-1.85c48-19.56,98.7-59.69,132.79-89.91,37-32.76,62.9-61.26,63.15-61.55l1.49,1.35c-.26.28-26.25,28.85-63.3,61.69C266.67,292.93,215.77,333.21,167.5,352.88Z"/><path class="cls-2" d="M382.94,127.47a7.42,7.42,0,1,1,7.41-7.41A7.42,7.42,0,0,1,382.94,127.47Zm0-12.83a5.42,5.42,0,1,0,5.41,5.42A5.42,5.42,0,0,0,382.94,114.64Z"/><path class="cls-2" d="M440.29,72.34a7.42,7.42,0,1,1,7.42-7.42A7.42,7.42,0,0,1,440.29,72.34Zm0-12.84a5.42,5.42,0,1,0,5.42,5.42A5.42,5.42,0,0,0,440.29,59.5Z"/></g><g class="cls-1"><path class="cls-2" d="M449,369.47c-6.74,0-20.12-.72-38.09-5.19-24.24-6-62.08-20.36-104.72-54.25C224.85,245.34,180.7,201.39,180.26,201l-.7-.7,57.55-58.51L411.64,317l44.18,52.15-1.9.18C453.87,369.32,452.17,369.47,449,369.47ZM182.38,200.23c6,5.87,49.39,48.06,125.09,108.23,42.32,33.64,79.83,47.85,103.85,53.85,20.83,5.2,35.38,5.29,40.44,5.12l-41.59-49.1-173-173.75Z"/><path class="cls-2" d="M180.31,201l-11-9.65.78-.76c.11-.11,11.58-11.2,22.18-21.13,3.58-3.35,5.29-6.5,5.09-9.38a7.14,7.14,0,0,0-2.75-4.9c-55.75-41-102.23-95.7-104.26-107.45-1.42-8.21-7-7.85-18.47-6.34-1.31.17-2.67.35-4.08.51l-.66.08-.33-.58c-9-16.15,0-31.61,12.9-39.77,11.66-7.38,30.41,12.62,31.2,13.47l126.9,127.35-1.42,1.42L109.48,16.49c-.2-.23-18.43-19.66-28.69-13.17C62.07,15.18,64,31.56,68.25,39.84c1.16-.14,2.29-.29,3.38-.44,10.56-1.39,18.9-2.48,20.7,8,1.71,9.94,44.8,63,103.45,106.16a9,9,0,0,1,3.58,6.35c.27,3.52-1.65,7.23-5.71,11-9,8.42-18.62,17.69-21.38,20.36l9.36,8.21Z"/><rect class="cls-2" x="187.91" y="138.72" width="37.96" height="2" transform="translate(-38.78 184.08) rotate(-44.27)"/><path class="cls-2" d="M402.82,352.88c-48.26-19.67-99.17-59.95-133.38-90.27-37-32.84-63-61.41-63.29-61.69l1.48-1.35c.26.29,26.19,28.79,63.15,61.55,34.09,30.22,84.8,70.35,132.8,89.91Z"/><path class="cls-2" d="M187.39,127.47a7.42,7.42,0,1,1,7.41-7.41A7.42,7.42,0,0,1,187.39,127.47Zm0-12.83a5.42,5.42,0,1,0,5.41,5.42A5.42,5.42,0,0,0,187.39,114.64Z"/><path class="cls-2" d="M130,72.34a7.42,7.42,0,1,1,7.42-7.42A7.43,7.43,0,0,1,130,72.34Zm0-12.84a5.42,5.42,0,1,0,5.42,5.42A5.42,5.42,0,0,0,130,59.5Z"/></g><path class="cls-3" d="M9.68,177.5l21,50.86H21L0,177.5Zm41.54,0L33.76,219.62,29,207.91,41.54,177.5Z"/><path class="cls-3" d="M100.62,228.36H91.16l-4.58-11.43H61.77l-4.59,11.43H47.65L68,177.5h12.3ZM83.16,208.42l-9-22.48-8.94,22.48Z"/><path class="cls-3" d="M151.1,228.36h-6.83l-30.05-34.93v34.93h-9.39V177.5h6.84l30.05,34.85V177.5h9.38Z"/><path class="cls-3" d="M208.8,203a25.51,25.51,0,0,1-25.61,25.4H160.85V177.5h22.63c9.53,0,17.17,6.55,17.17,15.42a22.24,22.24,0,0,1-3.28,11.21c0-.37.08-.8.08-1.17,0-8.87-6.77-16.44-15.14-16.44H170.24v32.74h12c15.13-.36,23.5-10.55,25.17-24.52A25.5,25.5,0,0,1,208.8,203Z"/><path class="cls-3" d="M225.23,186.23v12.3h26.12v8.8H225.23v12.22h31.58v8.81h-41V177.5h41v8.73Z"/><path class="cls-3" d="M312.9,228.36H301.84l-11.71-15.72H274.78v15.72h-9.39V177.5h26.7a17.77,17.77,0,0,1,17.83,17.61,17.48,17.48,0,0,1-10.12,15.78Zm-12.37-33.25a8.68,8.68,0,0,0-8.73-8.59h-17v17.1h17A8.62,8.62,0,0,0,300.53,195.11Z"/><path class="cls-3" d="M317.77,177.5h9.39v50.86h-9.39Zm15.86,50.86v-8.81h19.86v8.81Z"/><path class="cls-3" d="M359.6,228.36V177.5H369v50.86Z"/><path class="cls-3" d="M425.74,228.36H418.9l-30-34.93v34.93h-9.39V177.5h6.84l30.05,34.85V177.5h9.39Z"/><path class="cls-3" d="M483.43,203a25.51,25.51,0,0,1-25.61,25.4H435.48V177.5h22.63c9.53,0,17.17,6.55,17.17,15.42A22.24,22.24,0,0,1,472,204.13c0-.37.08-.8.08-1.17,0-8.87-6.77-16.44-15.14-16.44H444.87v32.74h12c15.13-.36,23.5-10.55,25.17-24.52A25.5,25.5,0,0,1,483.43,203Z"/><path class="cls-3" d="M499.87,186.23v12.3H526v8.8H499.87v12.22h31.57v8.81h-41V177.5h41v8.73Z"/><path class="cls-3" d="M586.08,228.36h-6.84l-30-34.93v34.93H539.8V177.5h6.84l30.05,34.85V177.5h9.39Z"/><path class="cls-3" d="M146.93,98.14l-2.28,1.24L142,97.22l-6,3.24.39,3.37-2.3,1.24-1.74-15,3-1.61ZM140.1,95.6,135,91.35l.78,6.61Z"/><path class="cls-3" d="M150.72,83.64,152.26,87l6.53-3,1,2.2-6.53,3L155.5,94l-2.35,1.07-5.84-12.7,10.23-4.71L158.61,80Z"/><path class="cls-3" d="M168.88,75.8l1.32,3.44,6.7-2.58.87,2.25-6.7,2.58,1.91,5-2.41.92-5-13,10.51-4,.91,2.39Z"/><path class="cls-3" d="M198.75,70.25a7.37,7.37,0,1,1-9.24-4.83A7.41,7.41,0,0,1,198.75,70.25Zm-2.47.77a4.79,4.79,0,1,0-3.15,6A4.78,4.78,0,0,0,196.28,71Z"/><path class="cls-3" d="M220.75,72l-3,.7-4.12-3.44-4.11,1,1,4.19L208,75l-3.22-13.6,7.14-1.7a4.9,4.9,0,0,1,5.89,3.59,4.8,4.8,0,0,1-1.71,4.86Zm-5.42-8.11a2.37,2.37,0,0,0-2.87-1.74l-4.56,1.07L209,67.8l4.56-1.08A2.36,2.36,0,0,0,215.33,63.89Z"/><path class="cls-3" d="M239.31,61.62a7,7,0,0,1-5.65,8l-5.94,1-2.29-13.79,5.95-1A6.94,6.94,0,0,1,239.31,61.62Zm-2.53.41a4.47,4.47,0,0,0-5.08-3.72l-3.31.55,1.47,8.88,3.31-.54A4.47,4.47,0,0,0,236.78,62Z"/><path class="cls-3" d="M260.29,66.36l-2.58.26-1.57-3-6.78.67-1,3.25-2.6.26L250,53.34l3.36-.34Zm-5.31-5-3.08-5.9-1.84,6.39Z"/><path class="cls-3" d="M279.48,61.59a4,4,0,0,1-3.85,4.12l-8.46.26-.43-14,8.08-.25a3.8,3.8,0,0,1,3.91,3.68,3.48,3.48,0,0,1-1.57,2.87A3.87,3.87,0,0,1,279.48,61.59Zm-5.11-7.49-5.06.16.1,3.29,5.06-.15a1.62,1.62,0,0,0,1.61-1.67A1.67,1.67,0,0,0,274.37,54.1Zm2.53,7.35A1.87,1.87,0,0,0,275,59.64l-5.48.17.12,3.74,5.48-.17A1.87,1.87,0,0,0,276.9,61.45Z"/><path class="cls-3" d="M297,66l-9.81-.31.44-14,2.58.08-.37,11.56,7.24.23Z"/><path class="cls-3" d="M308.17,55.19l-.31,3.34,7.14.68-.22,2.41-7.15-.68-.31,3.35,8.64.81-.23,2.41-11.21-1.06,1.31-13.91L317,53.6,316.81,56Z"/><path class="cls-3" d="M344.36,72.25l-9.64-1.89,2.7-13.72,2.54.5-2.24,11.34,7.11,1.4Z"/><path class="cls-3" d="M367.32,63.6l-2,7.56a6.56,6.56,0,0,1-12.69-3.35l2-7.57,2.49.66-2,7.57a4,4,0,0,0,7.72,2l2-7.57Z"/><path class="cls-3" d="M383.48,83.56l-2.92-1-2.07-6.07-5.33,3.56-2.92-1,7.42-4.94-2.83-8.27,2.92,1,2,5.9L385,69.3l2.9,1-7.28,4.84Z"/><path class="cls-3" d="M407.35,78.16l-3,7.21a6.56,6.56,0,0,1-12.11-5.06l3-7.22,2.38,1-3,7.22A4,4,0,0,0,402,84.39l3-7.22Z"/><path class="cls-3" d="M421.27,100.46l-2.72-1.37-.94-5.29-3.77-1.9-1.93,3.85-2.31-1.16,6.29-12.5,6.56,3.31a4.88,4.88,0,0,1,2.2,6.52,4.82,4.82,0,0,1-4.44,2.63Zm1.07-9.7a2.37,2.37,0,0,0-1.08-3.18l-4.18-2.11L415,89.67l4.19,2.11A2.36,2.36,0,0,0,422.34,90.76Z"/><path class="cls-3" d="M445.15,98.05,436,102.43l-2.82,4.79-2.22-1.3,2.81-4.8L433.1,91l2.54,1.49.46,7.2,6.51-3.11Z"/></g></g></svg>